:FULLY-SPECIFIED
:FORCE-ALL-JOINTS-BE-3DOF
:DEGREES
985
root 1.11542 15.153 32.4948 5.37809 -4.67268 364.124
lfemur 8.69963 1.76851 5.16666
ltibia 3.49861e-014 0 0
lfoot -30.105 -11.7143 0
ltoes -33.8762 0 0
rfemur -32.9601 -15.4958 -6.26304
rtibia 50.8354 0 0
rfoot -22.6051 4.99797 0
rtoes -41.8972 0 0
lowerback -1.55952 -0.419402 0.711649
upperback -0.71732 -0.562807 -5.90918
thorax 0.0696762 -0.297417 -6.54228
lowerneck -6.66561 1.13655 5.87464
upperneck 1.06765 0.934706 3.32563
head 1.46878 0.569495 0.0806115
lclavicle -1.19271e-015 -1.90833e-014 0
lhumerus -58.3302 -45.1106 114.756
lradius 55.0431 0 0
lwrist 25.17 0 0
lhand 37.2967 24.4826 0
lfingers 7.12502 0 0
lthumb 60.119 38.1373 0
rclavicle -1.19271e-015 -1.90833e-014 0
rhumerus 3.74617 -25.0279 -0.173623
rradius 28.014 0 0
rwrist -11.3028 0 0
rhand -31.4609 -44.6274 0
rfingers 7.12502 0 0
rthumb -4.72817 -794.555 0
986
root 1.11433 15.1508 32.491 5.35389 -4.67708 364.105
lfemur 8.73892 1.76293 5.20152
ltibia -0.0415802 0 0
lfoot -30.1097 -11.673 0
ltoes -33.9187 0 0
rfemur -32.9656 -15.5177 -6.23639
rtibia 50.8592 0 0
rfoot -22.6404 5.02404 0
rtoes -41.8857 0 0
lowerback -1.54681 -0.4155 0.71048
upperback -0.704628 -0.557293 -5.89753
thorax 0.0764147 -0.294255 -6.52894
lowerneck -6.67096 1.14315 5.90587
upperneck 1.0702 0.94016 3.32872
head 1.47069 0.572667 0.0765447
lclavicle -1.0106e-015 -1.97874e-014 0
lhumerus -58.3248 -45.143 114.789
lradius 55.0461 0 0
lwrist 25.1678 0 0
lhand 37.2568 24.4886 0
lfingers 7.12502 0 0
lthumb 60.0855 38.1835 0
rclavicle -1.0106e-015 -1.97874e-014 0
rhumerus 3.73522 -24.9001 -0.103318
rradius 27.9871 0 0
rwrist -11.2538 0 0
rhand -31.3616 -44.5364 0
rfingers 7.12502 0 0
rthumb -4.63232 -794.468 0
987
root 1.11342 15.1489 32.4875 5.33037 -4.67719 364.087
lfemur 8.77385 1.75381 5.23499
ltibia -0.0798346 0 0
lfoot -30.1135 -11.6337 0
ltoes -33.9588 0 0
rfemur -32.9667 -15.5392 -6.21143
rtibia 50.879 0 0
rfoot -22.6714 5.04735 0
rtoes -41.8769 0 0
lowerback -1.53485 -0.411089 0.708157
upperback -0.692628 -0.55109 -5.8873
thorax 0.0829327 -0.290763 -6.51645
lowerneck -6.67746 1.14845 5.93545
upperneck 1.07465 0.943838 3.33217
head 1.4734 0.575028 0.0728166
lclavicle -8.42004e-016 -2.03899e-014 0
lhumerus -58.3213 -45.1765 114.82
lradius 55.0508 0 0
lwrist 25.1659 0 0
lhand 37.2206 24.4954 0
lfingers 7.12502 0 0
lthumb 60.0552 38.2268 0
rclavicle -8.42004e-016 -2.03899e-014 0
rhumerus 3.72261 -24.7817 -0.0389965
rradius 27.9616 0 0
rwrist -11.2063 0 0
rhand -31.2697 -44.449 0
rfingers 7.12502 0 0
rthumb -4.54364 -794.384 0
988
root 1.11266 15.1472 32.484 5.3075 -4.67322 364.068
lfemur 8.80458 1.74131 5.26712
ltibia -0.114859 0 0
lfoot -30.1164 -11.5965 0
ltoes -33.9963 0 0
rfemur -32.9634 -15.56 -6.1881
rtibia 50.895 0 0
rfoot -22.6981 5.068 0
rtoes -41.8705 0 0
lowerback -1.52362 -0.406196 0.704722
upperback -0.681299 -0.544233 -5.87842
thorax 0.0892411 -0.286955 -6.50476
lowerneck -6.68505 1.15251 5.96342
upperneck 1.08092 0.945815 3.33596
head 1.47687 0.576611 0.0694154
lclavicle -6.86227e-016 -2.08952e-014 0
lhumerus -58.3194 -45.2112 114.85
lradius 55.0574 0 0
lwrist 25.1643 0 0
lhand 37.1882 24.5031 0
lfingers 7.12502 0 0
lthumb 60.028 38.2671 0
rclavicle -6.86227e-016 -2.08952e-014 0
rhumerus 3.70843 -24.6724 0.0195692
rradius 27.9374 0 0
rwrist -11.1605 0 0
rhand -31.185 -44.3651 0
rfingers 7.12502 0 0
rthumb -4.46189 -794.303 0
989
root 1.11206 15.1457 32.4808 5.28529 -4.66536 364.05
lfemur 8.83128 1.7256 5.29792
ltibia -0.14675 0 0
lfoot -30.1186 -11.5611 0
ltoes -34.0316 0 0
rfemur -32.956 -15.5804 -6.16636
rtibia 50.9074 0 0
rfoot -22.7207 5.08611 0
rtoes -41.8665 0 0
lowerback -1.51311 -0.400846 0.700221
upperback -0.670617 -0.536754 -5.87084
thorax 0.0953505 -0.282849 -6.49385
lowerneck -6.69367 1.15539 5.98984
upperneck 1.08889 0.946161 3.34008
head 1.48107 0.577448 0.0663291
lclavicle -5.4259e-016 -2.13076e-014 0
lhumerus -58.3191 -45.247 114.878
lradius 55.0655 0 0
lwrist 25.1629 0 0
lhand 37.1592 24.5116 0
lfingers 7.12502 0 0
lthumb 60.0037 38.3048 0
rclavicle -5.4259e-016 -2.13076e-014 0
rhumerus 3.69273 -24.5717 0.0726077
rradius 27.9145 0 0
rwrist -11.1161 0 0
rhand -31.1072 -44.2846 0
rfingers 7.12502 0 0
rthumb -4.3868 -794.225 0
990
root 1.11161 15.1444 32.4777 5.26371 -4.65379 364.032
lfemur 8.85412 1.70685 5.32744
ltibia -0.175602 0 0
lfoot -30.12 -11.5277 0
ltoes -34.0645 0 0
rfemur -32.9446 -15.6001 -6.14616
rtibia 50.9163 0 0
rfoot -22.7395 5.10179 0
rtoes -41.8646 0 0
lowerback -1.5033 -0.395062 0.694696
upperback -0.660559 -0.528688 -5.8645
thorax 0.101272 -0.278462 -6.48367
lowerneck -6.70325 1.15712 6.01476
upperneck 1.09848 0.944952 3.34452
head 1.48594 0.577571 0.0635459
lclavicle -4.1041e-016 -2.16315e-014 0
lhumerus -58.3204 -45.2837 114.905
lradius 55.0753 0 0
lwrist 25.1617 0 0
lhand 37.1337 24.5208 0
lfingers 7.12502 0 0
lthumb 59.9823 38.3397 0
rclavicle -4.1041e-016 -2.16315e-014 0
rhumerus 3.6756 -24.4795 0.120347
rradius 27.8928 0 0
rwrist -11.0733 0 0
rhand -31.036 -44.2073 0
rfingers 7.12502 0 0
rthumb -4.31813 -794.15 0
991
root 1.1113 15.1433 32.4747 5.24276 -4.63872 364.014
lfemur 8.87326 1.68523 5.35571
ltibia -0.201513 0 0
lfoot -30.1208 -11.496 0
ltoes -34.0953 0 0
rfemur -32.9295 -15.6194 -6.12743
rtibia 50.9219 0 0
rfoot -22.7546 5.11516 0
rtoes -41.8648 0 0
lowerback -1.49418 -0.388871 0.688191
upperback -0.651104 -0.520068 -5.85934
thorax 0.107016 -0.273809 -6.4742
lowerneck -6.71375 1.15777 6.03824
upperneck 1.10959 0.942258 3.34925
head 1.49146 0.577013 0.0610539
lclavicle -2.89002e-016 -2.18712e-014 0
lhumerus -58.323 -45.3214 114.931
lradius 55.0865 0 0
lwrist 25.1608 0 0
lhand 37.1114 24.5308 0
lfingers 7.12502 0 0
lthumb 59.9636 38.3721 0
rclavicle -2.89002e-016 -2.18712e-014 0
rhumerus 3.6571 -24.3952 0.163016
rradius 27.8723 0 0
rwrist -11.0318 0 0
rhand -30.9713 -44.1333 0
rfingers 7.12502 0 0
rthumb -4.25561 -794.078 0
992
root 1.11114 15.1424 32.4719 5.22244 -4.62033 363.996
lfemur 8.88886 1.6609 5.38275
ltibia -0.224577 0 0
lfoot -30.1209 -11.4661 0
ltoes -34.1239 0 0
rfemur -32.9109 -15.6381 -6.11013
rtibia 50.9244 0 0
rfoot -22.7661 5.12634 0
rtoes -41.8669 0 0
lowerback -1.48573 -0.382298 0.680749
upperback -0.642228 -0.510928 -5.85532
thorax 0.112593 -0.268907 -6.46539
lowerneck -6.7251 1.15737 6.06033
upperneck 1.12213 0.938154 3.35426
head 1.49757 0.575806 0.0588413
lclavicle -1.77683e-016 -2.20312e-014 0
lhumerus -58.3271 -45.3599 114.956
lradius 55.0991 0 0
lwrist 25.1601 0 0
lhand 37.0922 24.5415 0
lfingers 7.12502 0 0
lthumb 59.9475 38.402 0
rclavicle -1.77683e-016 -2.20312e-014 0
rhumerus 3.63731 -24.3187 0.200843
rradius 27.853 0 0
rwrist -10.9917 0 0
rhand -30.9126 -44.0623 0
rfingers 7.12502 0 0
rthumb -4.199 -794.009 0
993
root 1.1111 15.1417 32.4693 5.20272 -4.59882 363.978
lfemur 8.9011 1.63405 5.40859
ltibia -0.244891 0 0
lfoot -30.1205 -11.4379 0
ltoes -34.1505 0 0
rfemur -32.8888 -15.6563 -6.09422
rtibia 50.9238 0 0
rfoot -22.7742 5.13543 0
rtoes -41.8709 0 0
lowerback -1.47794 -0.375367 0.672416
upperback -0.633909 -0.501301 -5.85236
thorax 0.118014 -0.263772 -6.45721
lowerneck -6.73724 1.15599 6.08108
upperneck 1.13598 0.932712 3.35953
head 1.50423 0.573982 0.0568962
lclavicle -7.57696e-017 -2.21157e-014 0
lhumerus -58.3325 -45.3991 114.979
lradius 55.113 0 0
lwrist 25.1597 0 0
lhand 37.076 24.5528 0
lfingers 7.12502 0 0
lthumb 59.9339 38.4296 0
rclavicle -7.57696e-017 -2.21157e-014 0
rhumerus 3.61629 -24.2494 0.234055
rradius 27.8348 0 0
rwrist -10.953 0 0
rhand -30.8598 -43.9943 0
rfingers 7.12502 0 0
rthumb -4.14803 -793.943 0
994
root 1.1112 15.1411 32.4668 5.1836 -4.57437 363.96
lfemur 8.91014 1.60482 5.43328
ltibia -0.262551 0 0
lfoot -30.1196 -11.4113 0
ltoes -34.1752 0 0
rfemur -32.8636 -15.6739 -6.07962
rtibia 50.9203 0 0
rfoot -22.779 5.14256 0
rtoes -41.8765 0 0
lowerback -1.47078 -0.368103 0.663234
upperback -0.626125 -0.491221 -5.85042
thorax 0.12329 -0.258422 -6.44963
lowerneck -6.75011 1.15367 6.10054
upperneck 1.15107 0.926004 3.36505
head 1.51142 0.571574 0.0552068
lclavicle 1.74219e-017 -2.21291e-014 0
lhumerus -58.339 -45.439 115.001
lradius 55.1281 0 0
lwrist 25.1595 0 0
lhand 37.0625 24.5647 0
lfingers 7.12502 0 0
lthumb 59.9226 38.4549 0
rclavicle 1.74219e-017 -2.21291e-014 0
rhumerus 3.59412 -24.1872 0.262882
rradius 27.8177 0 0
rwrist -10.9155 0 0
rhand -30.8126 -43.9292 0
rfingers 7.12502 0 0
rthumb -4.10246 -793.879 0
995
root 1.11143 15.1407 32.4645 5.16507 -4.54719 363.943
lfemur 8.91615 1.5734 5.45684
ltibia -0.277652 0 0
lfoot -30.1183 -11.3862 0
ltoes -34.198 0 0
rfemur -32.8354 -15.691 -6.06631
rtibia 50.9142 0 0
rfoot -22.7809 5.14783 0
rtoes -41.8836 0 0
lowerback -1.46425 -0.360532 0.653247
upperback -0.618853 -0.480722 -5.84944
thorax 0.128432 -0.252872 -6.44261
lowerneck -6.76366 1.15047 6.11877
upperneck 1.16729 0.918105 3.3708
head 1.51907 0.568614 0.053761
lclavicle 1.02575e-016 -2.20759e-014 0
lhumerus -58.3467 -45.4795 115.022
lradius 55.1444 0 0
lwrist 25.1595 0 0
lhand 37.0518 24.5771 0
lfingers 7.12502 0 0
lthumb 59.9136 38.4781 0
rclavicle 1.02575e-016 -2.20759e-014 0
rhumerus 3.57086 -24.1316 0.287551
rradius 27.8016 0 0
rwrist -10.8792 0 0
rhand -30.7707 -43.8667 0
rfingers 7.12502 0 0
rthumb -4.06202 -793.818 0
996
root 1.11177 15.1404 32.4623 5.14712 -4.51747 363.925
lfemur 8.91928 1.53995 5.4793
ltibia -0.29029 0 0
lfoot -30.1165 -11.3626 0
ltoes -34.219 0 0
rfemur -32.8043 -15.7075 -6.05421
rtibia 50.9055 0 0
rfoot -22.7798 5.15136 0
rtoes -41.8921 0 0
lowerback -1.45833 -0.352679 0.642499
upperback -0.612069 -0.469838 -5.84936
thorax 0.13345 -0.247138 -6.43611
lowerneck -6.77782 1.14643 6.13582
upperneck 1.18454 0.909086 3.37677
head 1.52716 0.565134 0.0525472
lclavicle 1.80373e-016 -2.19603e-014 0
lhumerus -58.3554 -45.5205 115.042
lradius 55.1617 0 0
lwrist 25.1597 0 0
lhand 37.0437 24.5901 0
lfingers 7.12502 0 0
lthumb 59.9068 38.4993 0
rclavicle 1.80373e-016 -2.19603e-014 0
rhumerus 3.54659 -24.0823 0.308292
rradius 27.7865 0 0
rwrist -10.8441 0 0
rhand -30.7339 -43.8069 0
rfingers 7.12502 0 0
rthumb -4.02646 -793.759 0
